<svg width="848" height="848" viewBox="0 0 848 848" fill="none" xmlns="http://www.w3.org/2000/svg">
<path d="M93.1401 414.817L127.104 435.953V473.697L93.1401 451.631L93.1401 414.817Z" fill="#C41E1E"/>
<path d="M92.7263 454.115L126.691 475.25V512.995L92.7263 490.929L92.7263 454.115Z" fill="#867C7C"/>
<path d="M92.3125 493.12L126.277 514.256V552L92.3125 529.934L92.3125 493.12Z" fill="#867C7C"/>
<path d="M57.0105 391.84L90.9748 412.975V450.72L57.0105 428.654L57.0105 391.84Z" fill="#C41E1E"/>
<path d="M56.5964 431.137L90.5607 452.273V490.017L56.5964 467.951L56.5964 431.137Z" fill="#867C7C"/>
<path d="M56.1826 470.143L90.1469 491.278V529.023L56.1826 506.957L56.1826 470.143Z" fill="#867C7C"/>
<path d="M20.8806 368.862L54.8449 389.998V427.742L20.8806 405.676L20.8806 368.862Z" fill="#C41E1E"/>
<path d="M20.4668 408.16L54.4311 429.295V467.04L20.4668 444.974L20.4668 408.16Z" fill="#867C7C"/>
<path d="M20.053 447.165L54.0173 468.3V506.045L20.053 483.979L20.053 447.165Z" fill="#867C7C"/>
<path d="M235.079 368.523V405.49L200.644 427.265L200.644 390.552L235.079 368.523Z" fill="#C41E1E"/>
<path d="M235.363 406.991V443.958L200.928 465.733L200.928 429.019L235.363 406.991Z" fill="#867C7C"/>
<path d="M235.363 445.427V482.394L200.928 504.169L200.928 467.455L235.363 445.427Z" fill="#867C7C"/>
<path d="M199.299 391.361V428.328L164.864 450.103L164.864 413.39L199.299 391.361Z" fill="#C41E1E"/>
<path d="M199.582 429.829V466.796L165.147 488.571L165.147 451.857L199.582 429.829Z" fill="#867C7C"/>
<path d="M199.582 468.264V505.231L165.147 527.006L165.147 490.292L199.582 468.264Z" fill="#867C7C"/>
<path d="M163.81 414.591V451.558L129.375 473.333L129.375 436.62L163.81 414.591Z" fill="#C41E1E"/>
<path d="M164.094 453.058V490.025L129.659 511.8L129.659 475.086L164.094 453.058Z" fill="#867C7C"/>
<path d="M164.094 491.494V528.461L129.659 550.236L129.659 513.522L164.094 491.494Z" fill="#867C7C"/>
<path d="M128.287 296L163.461 318.371L128.287 341.041L92.9531 318.371L128.287 296Z" fill="#C41E1E"/>
<path d="M164.53 319.467L199.704 341.838L164.53 364.508L129.196 341.838L164.53 319.467Z" fill="#C41E1E"/>
<path d="M200.773 342.935L235.947 365.305L200.773 387.976L165.439 365.305L200.773 342.935Z" fill="#C41E1E"/>
<path d="M55.8004 342.867L90.9747 365.237L55.8004 387.908L20.4668 365.237L55.8004 342.867Z" fill="#C41E1E"/>
<path d="M92.0436 366.334L127.218 388.705L92.0436 411.375L56.71 388.705L92.0436 366.334Z" fill="#C41E1E"/>
<path d="M128.287 389.801L163.461 412.172L128.287 434.842L92.9531 412.172L128.287 389.801Z" fill="#C41E1E"/>
<path d="M91.9303 319.467L127.105 341.838L91.9303 364.508L56.5967 341.838L91.9303 319.467Z" fill="#C41E1E"/>
<path d="M128.173 342.935L163.347 365.305L128.173 387.976L92.8396 365.305L128.173 342.935Z" fill="#C41E1E"/>
<path d="M164.416 366.402L199.591 388.772L164.416 411.443L129.083 388.772L164.416 366.402Z" fill="#C41E1E"/>
<path d="M389.14 414.817L423.104 435.953V473.697L389.14 451.631L389.14 414.817Z" fill="#867C7C"/>
<path d="M388.726 454.115L422.691 475.25V512.995L388.726 490.929L388.726 454.115Z" fill="#C41E1E"/>
<path d="M388.313 493.12L422.277 514.256V552L388.312 529.934L388.313 493.12Z" fill="#867C7C"/>
<path d="M353.01 391.84L386.975 412.975V450.72L353.01 428.654L353.01 391.84Z" fill="#867C7C"/>
<path d="M352.596 431.137L386.561 452.273V490.017L352.596 467.951L352.596 431.137Z" fill="#C41E1E"/>
<path d="M352.183 470.143L386.147 491.278V529.023L352.183 506.957L352.183 470.143Z" fill="#867C7C"/>
<path d="M316.881 368.862L350.845 389.998V427.742L316.881 405.676L316.881 368.862Z" fill="#867C7C"/>
<path d="M316.467 408.16L350.431 429.295V467.04L316.467 444.974L316.467 408.16Z" fill="#C41E1E"/>
<path d="M316.053 447.165L350.017 468.3V506.045L316.053 483.979L316.053 447.165Z" fill="#867C7C"/>
<path d="M531.079 368.523V405.49L496.644 427.265L496.644 390.552L531.079 368.523Z" fill="#867C7C"/>
<path d="M531.363 406.991V443.958L496.928 465.733L496.928 429.019L531.363 406.991Z" fill="#C41E1E"/>
<path d="M531.363 445.427V482.394L496.928 504.169L496.928 467.455L531.363 445.427Z" fill="#867C7C"/>
<path d="M495.299 391.361V428.328L460.864 450.103L460.864 413.39L495.299 391.361Z" fill="#867C7C"/>
<path d="M495.582 429.829V466.796L461.147 488.571L461.147 451.857L495.582 429.829Z" fill="#C41E1E"/>
<path d="M495.582 468.264V505.231L461.147 527.006L461.147 490.292L495.582 468.264Z" fill="#867C7C"/>
<path d="M459.81 414.591V451.558L425.375 473.333L425.375 436.62L459.81 414.591Z" fill="#867C7C"/>
<path d="M460.094 453.058V490.025L425.659 511.8L425.659 475.086L460.094 453.058Z" fill="#C41E1E"/>
<path d="M460.094 491.494V528.461L425.659 550.236L425.659 513.522L460.094 491.494Z" fill="#867C7C"/>
<path d="M424.287 296L459.461 318.371L424.287 341.041L388.953 318.371L424.287 296Z" fill="#867C7C"/>
<path d="M460.53 319.467L495.704 341.838L460.53 364.508L425.196 341.838L460.53 319.467Z" fill="#867C7C"/>
<path d="M496.773 342.935L531.947 365.305L496.773 387.976L461.439 365.305L496.773 342.935Z" fill="#867C7C"/>
<path d="M351.8 342.867L386.975 365.237L351.8 387.908L316.467 365.237L351.8 342.867Z" fill="#867C7C"/>
<path d="M388.044 366.334L423.218 388.705L388.044 411.375L352.71 388.705L388.044 366.334Z" fill="#867C7C"/>
<path d="M424.287 389.801L459.461 412.172L424.287 434.842L388.953 412.172L424.287 389.801Z" fill="#867C7C"/>
<path d="M387.93 319.467L423.105 341.838L387.93 364.508L352.597 341.838L387.93 319.467Z" fill="#867C7C"/>
<path d="M424.173 342.935L459.347 365.305L424.173 387.976L388.84 365.305L424.173 342.935Z" fill="#867C7C"/>
<path d="M460.416 366.402L495.591 388.772L460.416 411.443L425.083 388.772L460.416 366.402Z" fill="#867C7C"/>
<path d="M685.14 414.817L719.104 435.953V473.697L685.14 451.631L685.14 414.817Z" fill="#867C7C"/>
<path d="M684.726 454.115L718.691 475.25V512.995L684.726 490.929L684.726 454.115Z" fill="#867C7C"/>
<path d="M684.313 493.12L718.277 514.256V552L684.312 529.934L684.313 493.12Z" fill="#C41E1E"/>
<path d="M649.01 391.84L682.975 412.975V450.72L649.01 428.654L649.01 391.84Z" fill="#867C7C"/>
<path d="M648.596 431.137L682.561 452.273V490.017L648.596 467.951L648.596 431.137Z" fill="#867C7C"/>
<path d="M648.183 470.143L682.147 491.278V529.023L648.183 506.957L648.183 470.143Z" fill="#C41E1E"/>
<path d="M612.881 368.862L646.845 389.998V427.742L612.881 405.676L612.881 368.862Z" fill="#867C7C"/>
<path d="M612.467 408.16L646.431 429.295V467.04L612.467 444.974L612.467 408.16Z" fill="#867C7C"/>
<path d="M612.053 447.165L646.017 468.3V506.045L612.053 483.979L612.053 447.165Z" fill="#C41E1E"/>
<path d="M827.079 368.523V405.49L792.644 427.265L792.644 390.552L827.079 368.523Z" fill="#867C7C"/>
<path d="M827.363 406.991V443.958L792.928 465.733L792.928 429.019L827.363 406.991Z" fill="#867C7C"/>
<path d="M827.363 445.427V482.394L792.928 504.169L792.928 467.455L827.363 445.427Z" fill="#C41E1E"/>
<path d="M791.299 391.361V428.328L756.864 450.103L756.864 413.39L791.299 391.361Z" fill="#867C7C"/>
<path d="M791.582 429.829V466.796L757.147 488.571L757.147 451.857L791.582 429.829Z" fill="#867C7C"/>
<path d="M791.582 468.264V505.231L757.147 527.006L757.147 490.292L791.582 468.264Z" fill="#C41E1E"/>
<path d="M755.81 414.591V451.558L721.375 473.333L721.375 436.62L755.81 414.591Z" fill="#867C7C"/>
<path d="M756.094 453.058V490.025L721.659 511.8L721.659 475.086L756.094 453.058Z" fill="#867C7C"/>
<path d="M756.094 491.494V528.461L721.659 550.236L721.659 513.522L756.094 491.494Z" fill="#C41E1E"/>
<path d="M720.287 296L755.461 318.371L720.287 341.041L684.953 318.371L720.287 296Z" fill="#867C7C"/>
<path d="M756.53 319.467L791.704 341.838L756.53 364.508L721.196 341.838L756.53 319.467Z" fill="#867C7C"/>
<path d="M792.773 342.935L827.947 365.305L792.773 387.976L757.439 365.305L792.773 342.935Z" fill="#867C7C"/>
<path d="M647.8 342.867L682.975 365.237L647.8 387.908L612.467 365.237L647.8 342.867Z" fill="#867C7C"/>
<path d="M684.044 366.334L719.218 388.705L684.044 411.375L648.71 388.705L684.044 366.334Z" fill="#867C7C"/>
<path d="M720.287 389.801L755.461 412.172L720.287 434.842L684.953 412.172L720.287 389.801Z" fill="#867C7C"/>
<path d="M683.93 319.467L719.105 341.838L683.93 364.508L648.597 341.838L683.93 319.467Z" fill="#867C7C"/>
<path d="M720.173 342.935L755.347 365.305L720.173 387.976L684.84 365.305L720.173 342.935Z" fill="#867C7C"/>
<path d="M756.416 366.402L791.591 388.772L756.416 411.443L721.083 388.772L756.416 366.402Z" fill="#867C7C"/>
<path d="M93.1401 710.817L127.104 731.953V769.697L93.1401 747.631L93.1401 710.817Z" fill="#C41E1E"/>
<path d="M92.7263 750.115L126.691 771.25V808.995L92.7263 786.929L92.7263 750.115Z" fill="#C41E1E"/>
<path d="M92.3125 789.12L126.277 810.256V848L92.3125 825.934L92.3125 789.12Z" fill="#C41E1E"/>
<path d="M57.0105 687.84L90.9748 708.975V746.72L57.0105 724.654L57.0105 687.84Z" fill="#C41E1E"/>
<path d="M56.5964 727.137L90.5607 748.273V786.017L56.5964 763.951L56.5964 727.137Z" fill="#C41E1E"/>
<path d="M56.1826 766.143L90.1469 787.278V825.023L56.1826 802.957L56.1826 766.143Z" fill="#C41E1E"/>
<path d="M20.8806 664.862L54.8449 685.998V723.742L20.8806 701.676L20.8806 664.862Z" fill="#C41E1E"/>
<path d="M20.4668 704.16L54.4311 725.295V763.04L20.4668 740.974L20.4668 704.16Z" fill="#C41E1E"/>
<path d="M20.053 743.165L54.0173 764.3V802.045L20.053 779.979L20.053 743.165Z" fill="#C41E1E"/>
<path d="M235.079 664.523V701.49L200.644 723.265L200.644 686.552L235.079 664.523Z" fill="#867C7C"/>
<path d="M235.363 702.991V739.958L200.928 761.733L200.928 725.019L235.363 702.991Z" fill="#867C7C"/>
<path d="M235.363 741.427V778.394L200.928 800.169L200.928 763.455L235.363 741.427Z" fill="#867C7C"/>
<path d="M199.299 687.361V724.328L164.864 746.103L164.864 709.39L199.299 687.361Z" fill="#867C7C"/>
<path d="M199.582 725.829V762.796L165.147 784.571L165.147 747.857L199.582 725.829Z" fill="#867C7C"/>
<path d="M199.582 764.264V801.231L165.147 823.006L165.147 786.292L199.582 764.264Z" fill="#867C7C"/>
<path d="M163.81 710.591V747.558L129.375 769.333L129.375 732.62L163.81 710.591Z" fill="#C41E1E"/>
<path d="M164.094 749.058V786.025L129.659 807.8L129.659 771.086L164.094 749.058Z" fill="#C41E1E"/>
<path d="M164.094 787.494V824.461L129.659 846.236L129.659 809.522L164.094 787.494Z" fill="#C41E1E"/>
<path d="M128.287 592L163.461 614.371L128.287 637.041L92.9531 614.371L128.287 592Z" fill="#867C7C"/>
<path d="M164.53 615.467L199.704 637.838L164.53 660.508L129.196 637.838L164.53 615.467Z" fill="#867C7C"/>
<path d="M200.773 638.935L235.947 661.305L200.773 683.976L165.439 661.305L200.773 638.935Z" fill="#867C7C"/>
<path d="M55.8004 638.867L90.9747 661.237L55.8004 683.908L20.4668 661.237L55.8004 638.867Z" fill="#C41E1E"/>
<path d="M92.0436 662.334L127.218 684.705L92.0436 707.375L56.71 684.705L92.0436 662.334Z" fill="#C41E1E"/>
<path d="M128.287 685.801L163.461 708.172L128.287 730.842L92.9531 708.172L128.287 685.801Z" fill="#C41E1E"/>
<path d="M91.9303 615.467L127.105 637.838L91.9303 660.508L56.5967 637.838L91.9303 615.467Z" fill="#867C7C"/>
<path d="M128.173 638.935L163.347 661.305L128.173 683.976L92.8396 661.305L128.173 638.935Z" fill="#867C7C"/>
<path d="M164.416 662.402L199.591 684.772L164.416 707.443L129.083 684.772L164.416 662.402Z" fill="#867C7C"/>
<path d="M389.14 710.817L423.104 731.953V769.697L389.14 747.631L389.14 710.817Z" fill="#867C7C"/>
<path d="M388.726 750.115L422.691 771.25V808.995L388.726 786.929L388.726 750.115Z" fill="#867C7C"/>
<path d="M388.313 789.12L422.277 810.256V848L388.312 825.934L388.313 789.12Z" fill="#867C7C"/>
<path d="M353.01 687.84L386.975 708.975V746.72L353.01 724.654L353.01 687.84Z" fill="#867C7C"/>
<path d="M352.596 727.137L386.561 748.273V786.017L352.596 763.951L352.596 727.137Z" fill="#867C7C"/>
<path d="M352.183 766.143L386.147 787.278V825.023L352.183 802.957L352.183 766.143Z" fill="#867C7C"/>
<path d="M316.881 664.862L350.845 685.998V723.742L316.881 701.676L316.881 664.862Z" fill="#867C7C"/>
<path d="M316.467 704.16L350.431 725.295V763.04L316.467 740.974L316.467 704.16Z" fill="#867C7C"/>
<path d="M316.053 743.165L350.017 764.3V802.045L316.053 779.979L316.053 743.165Z" fill="#867C7C"/>
<path d="M531.079 664.523V701.49L496.644 723.265L496.644 686.552L531.079 664.523Z" fill="#867C7C"/>
<path d="M531.363 702.991V739.958L496.928 761.733L496.928 725.019L531.363 702.991Z" fill="#867C7C"/>
<path d="M531.363 741.427V778.394L496.928 800.169L496.928 763.455L531.363 741.427Z" fill="#867C7C"/>
<path d="M495.299 687.361V724.328L460.864 746.103L460.864 709.39L495.299 687.361Z" fill="#C41E1E"/>
<path d="M495.582 725.829V762.796L461.147 784.571L461.147 747.857L495.582 725.829Z" fill="#C41E1E"/>
<path d="M495.582 764.264V801.231L461.147 823.006L461.147 786.292L495.582 764.264Z" fill="#C41E1E"/>
<path d="M459.81 710.591V747.558L425.375 769.333L425.375 732.62L459.81 710.591Z" fill="#867C7C"/>
<path d="M460.094 749.058V786.025L425.659 807.8L425.659 771.086L460.094 749.058Z" fill="#867C7C"/>
<path d="M460.094 787.494V824.461L425.659 846.236L425.659 809.522L460.094 787.494Z" fill="#867C7C"/>
<path d="M424.287 592L459.461 614.371L424.287 637.041L388.953 614.371L424.287 592Z" fill="#867C7C"/>
<path d="M460.53 615.467L495.704 637.838L460.53 660.508L425.196 637.838L460.53 615.467Z" fill="#867C7C"/>
<path d="M496.773 638.935L531.947 661.305L496.773 683.976L461.439 661.305L496.773 638.935Z" fill="#867C7C"/>
<path d="M351.8 638.867L386.975 661.237L351.8 683.908L316.467 661.237L351.8 638.867Z" fill="#867C7C"/>
<path d="M388.044 662.334L423.218 684.705L388.044 707.375L352.71 684.705L388.044 662.334Z" fill="#867C7C"/>
<path d="M424.287 685.801L459.461 708.172L424.287 730.842L388.953 708.172L424.287 685.801Z" fill="#867C7C"/>
<path d="M387.93 615.467L423.105 637.838L387.93 660.508L352.597 637.838L387.93 615.467Z" fill="#C41E1E"/>
<path d="M424.173 638.935L459.347 661.305L424.173 683.976L388.84 661.305L424.173 638.935Z" fill="#C41E1E"/>
<path d="M460.416 662.402L495.591 684.772L460.416 707.443L425.083 684.772L460.416 662.402Z" fill="#C41E1E"/>
<path d="M685.14 710.817L719.104 731.953V769.697L685.14 747.631L685.14 710.817Z" fill="#867C7C"/>
<path d="M684.726 750.115L718.691 771.25V808.995L684.726 786.929L684.726 750.115Z" fill="#867C7C"/>
<path d="M684.313 789.12L718.277 810.256V848L684.312 825.934L684.313 789.12Z" fill="#867C7C"/>
<path d="M649.01 687.84L682.975 708.975V746.72L649.01 724.654L649.01 687.84Z" fill="#867C7C"/>
<path d="M648.596 727.137L682.561 748.273V786.017L648.596 763.951L648.596 727.137Z" fill="#867C7C"/>
<path d="M648.183 766.143L682.147 787.278V825.023L648.183 802.957L648.183 766.143Z" fill="#867C7C"/>
<path d="M612.881 664.862L646.845 685.998V723.742L612.881 701.676L612.881 664.862Z" fill="#867C7C"/>
<path d="M612.467 704.16L646.431 725.295V763.04L612.467 740.974L612.467 704.16Z" fill="#867C7C"/>
<path d="M612.053 743.165L646.017 764.3V802.045L612.053 779.979L612.053 743.165Z" fill="#867C7C"/>
<path d="M827.079 664.523V701.49L792.644 723.265L792.644 686.552L827.079 664.523Z" fill="#C41E1E"/>
<path d="M827.363 702.991V739.958L792.928 761.733L792.928 725.019L827.363 702.991Z" fill="#C41E1E"/>
<path d="M827.363 741.427V778.394L792.928 800.169L792.928 763.455L827.363 741.427Z" fill="#C41E1E"/>
<path d="M791.299 687.361V724.328L756.864 746.103L756.864 709.39L791.299 687.361Z" fill="#867C7C"/>
<path d="M791.582 725.829V762.796L757.147 784.571L757.147 747.857L791.582 725.829Z" fill="#867C7C"/>
<path d="M791.582 764.264V801.231L757.147 823.006L757.147 786.292L791.582 764.264Z" fill="#867C7C"/>
<path d="M755.81 710.591V747.558L721.375 769.333L721.375 732.62L755.81 710.591Z" fill="#867C7C"/>
<path d="M756.094 749.058V786.025L721.659 807.8L721.659 771.086L756.094 749.058Z" fill="#867C7C"/>
<path d="M756.094 787.494V824.461L721.659 846.236L721.659 809.522L756.094 787.494Z" fill="#867C7C"/>
<path d="M720.287 592L755.461 614.371L720.287 637.041L684.953 614.371L720.287 592Z" fill="#C41E1E"/>
<path d="M756.53 615.467L791.704 637.838L756.53 660.508L721.196 637.838L756.53 615.467Z" fill="#C41E1E"/>
<path d="M792.773 638.935L827.947 661.305L792.773 683.976L757.439 661.305L792.773 638.935Z" fill="#C41E1E"/>
<path d="M647.8 638.867L682.975 661.237L647.8 683.908L612.467 661.237L647.8 638.867Z" fill="#867C7C"/>
<path d="M684.044 662.334L719.218 684.705L684.044 707.375L648.71 684.705L684.044 662.334Z" fill="#867C7C"/>
<path d="M720.287 685.801L755.461 708.172L720.287 730.842L684.953 708.172L720.287 685.801Z" fill="#867C7C"/>
<path d="M683.93 615.467L719.105 637.838L683.93 660.508L648.597 637.838L683.93 615.467Z" fill="#867C7C"/>
<path d="M720.173 638.935L755.347 661.305L720.173 683.976L684.84 661.305L720.173 638.935Z" fill="#867C7C"/>
<path d="M756.416 662.402L791.591 684.772L756.416 707.443L721.083 684.772L756.416 662.402Z" fill="#867C7C"/>
<path d="M93.1401 118.817L127.104 139.953V177.697L93.1401 155.631L93.1401 118.817Z" fill="#C41E1E"/>
<path d="M92.7263 158.115L126.691 179.25V216.995L92.7263 194.929L92.7263 158.115Z" fill="#C41E1E"/>
<path d="M92.3125 197.12L126.277 218.256V256L92.3125 233.934L92.3125 197.12Z" fill="#C41E1E"/>
<path d="M57.0105 95.8398L90.9748 116.975V154.72L57.0105 132.654L57.0105 95.8398Z" fill="#867C7C"/>
<path d="M56.5964 135.137L90.5607 156.273V194.017L56.5964 171.951L56.5964 135.137Z" fill="#867C7C"/>
<path d="M56.1826 174.143L90.1469 195.278V233.023L56.1826 210.957L56.1826 174.143Z" fill="#867C7C"/>
<path d="M20.8806 72.8623L54.8449 93.9979V131.742L20.8806 109.676L20.8806 72.8623Z" fill="#867C7C"/>
<path d="M20.4668 112.16L54.4311 133.295V171.04L20.4668 148.974L20.4668 112.16Z" fill="#867C7C"/>
<path d="M20.053 151.165L54.0173 172.3V210.045L20.053 187.979L20.053 151.165Z" fill="#867C7C"/>
<path d="M235.079 72.5234V109.49L200.644 131.265L200.644 94.5517L235.079 72.5234Z" fill="#C41E1E"/>
<path d="M235.363 110.991V147.958L200.928 169.733L200.928 133.019L235.363 110.991Z" fill="#C41E1E"/>
<path d="M235.363 149.427V186.394L200.928 208.169L200.928 171.455L235.363 149.427Z" fill="#C41E1E"/>
<path d="M199.299 95.3613V132.328L164.864 154.103L164.864 117.39L199.299 95.3613Z" fill="#C41E1E"/>
<path d="M199.582 133.829V170.796L165.147 192.571L165.147 155.857L199.582 133.829Z" fill="#C41E1E"/>
<path d="M199.582 172.264V209.231L165.147 231.006L165.147 194.292L199.582 172.264Z" fill="#C41E1E"/>
<path d="M163.81 118.591V155.558L129.375 177.333L129.375 140.62L163.81 118.591Z" fill="#C41E1E"/>
<path d="M164.094 157.058V194.025L129.659 215.8L129.659 179.086L164.094 157.058Z" fill="#C41E1E"/>
<path d="M164.094 195.494V232.461L129.659 254.236L129.659 217.522L164.094 195.494Z" fill="#C41E1E"/>
<path d="M128.287 0L163.461 22.3706L128.287 45.0412L92.9531 22.3706L128.287 0Z" fill="#867C7C"/>
<path d="M164.53 23.4673L199.704 45.8379L164.53 68.5085L129.196 45.8379L164.53 23.4673Z" fill="#867C7C"/>
<path d="M200.773 46.9346L235.947 69.3052L200.773 91.9757L165.439 69.3052L200.773 46.9346Z" fill="#C41E1E"/>
<path d="M55.8004 46.8667L90.9747 69.2373L55.8004 91.9079L20.4668 69.2373L55.8004 46.8667Z" fill="#867C7C"/>
<path d="M92.0436 70.334L127.218 92.7046L92.0436 115.375L56.71 92.7046L92.0436 70.334Z" fill="#867C7C"/>
<path d="M128.287 93.8013L163.461 116.172L128.287 138.842L92.9531 116.172L128.287 93.8013Z" fill="#C41E1E"/>
<path d="M91.9303 23.4673L127.105 45.8379L91.9303 68.5085L56.5967 45.8379L91.9303 23.4673Z" fill="#867C7C"/>
<path d="M128.173 46.9346L163.347 69.3052L128.173 91.9757L92.8396 69.3052L128.173 46.9346Z" fill="#867C7C"/>
<path d="M164.416 70.4019L199.591 92.7725L164.416 115.443L129.083 92.7725L164.416 70.4019Z" fill="#C41E1E"/>
<path d="M389.14 118.817L423.104 139.953V177.697L389.14 155.631L389.14 118.817Z" fill="#867C7C"/>
<path d="M388.726 158.115L422.691 179.25V216.995L388.726 194.929L388.726 158.115Z" fill="#867C7C"/>
<path d="M388.313 197.12L422.277 218.256V256L388.312 233.934L388.313 197.12Z" fill="#867C7C"/>
<path d="M353.01 95.8398L386.975 116.975V154.72L353.01 132.654L353.01 95.8398Z" fill="#C41E1E"/>
<path d="M352.596 135.137L386.561 156.273V194.017L352.596 171.951L352.596 135.137Z" fill="#C41E1E"/>
<path d="M352.183 174.143L386.147 195.278V233.023L352.183 210.957L352.183 174.143Z" fill="#C41E1E"/>
<path d="M316.881 72.8623L350.845 93.9979V131.742L316.881 109.676L316.881 72.8623Z" fill="#867C7C"/>
<path d="M316.467 112.16L350.431 133.295V171.04L316.467 148.974L316.467 112.16Z" fill="#867C7C"/>
<path d="M316.053 151.165L350.017 172.3V210.045L316.053 187.979L316.053 151.165Z" fill="#867C7C"/>
<path d="M531.079 72.5234V109.49L496.644 131.265L496.644 94.5517L531.079 72.5234Z" fill="#867C7C"/>
<path d="M531.363 110.991V147.958L496.928 169.733L496.928 133.019L531.363 110.991Z" fill="#867C7C"/>
<path d="M531.363 149.427V186.394L496.928 208.169L496.928 171.455L531.363 149.427Z" fill="#867C7C"/>
<path d="M495.299 95.3613V132.328L460.864 154.103L460.864 117.39L495.299 95.3613Z" fill="#867C7C"/>
<path d="M495.582 133.829V170.796L461.147 192.571L461.147 155.857L495.582 133.829Z" fill="#867C7C"/>
<path d="M495.582 172.264V209.231L461.147 231.006L461.147 194.292L495.582 172.264Z" fill="#867C7C"/>
<path d="M459.81 118.591V155.558L425.375 177.333L425.375 140.62L459.81 118.591Z" fill="#867C7C"/>
<path d="M460.094 157.058V194.025L425.659 215.8L425.659 179.086L460.094 157.058Z" fill="#867C7C"/>
<path d="M460.094 195.494V232.461L425.659 254.236L425.659 217.522L460.094 195.494Z" fill="#867C7C"/>
<path d="M424.287 0L459.461 22.3706L424.287 45.0412L388.953 22.3706L424.287 0Z" fill="#867C7C"/>
<path d="M460.53 23.4673L495.704 45.8379L460.53 68.5085L425.196 45.8379L460.53 23.4673Z" fill="#C41E1E"/>
<path d="M496.773 46.9346L531.947 69.3052L496.773 91.9757L461.439 69.3052L496.773 46.9346Z" fill="#867C7C"/>
<path d="M351.8 46.8667L386.975 69.2373L351.8 91.9079L316.467 69.2373L351.8 46.8667Z" fill="#867C7C"/>
<path d="M388.044 70.334L423.218 92.7046L388.044 115.375L352.71 92.7046L388.044 70.334Z" fill="#C41E1E"/>
<path d="M424.287 93.8013L459.461 116.172L424.287 138.842L388.953 116.172L424.287 93.8013Z" fill="#867C7C"/>
<path d="M387.93 23.4673L423.105 45.8379L387.93 68.5085L352.597 45.8379L387.93 23.4673Z" fill="#867C7C"/>
<path d="M424.173 46.9346L459.347 69.3052L424.173 91.9757L388.84 69.3052L424.173 46.9346Z" fill="#C41E1E"/>
<path d="M460.416 70.4019L495.591 92.7725L460.416 115.443L425.083 92.7725L460.416 70.4019Z" fill="#867C7C"/>
<path d="M685.14 118.817L719.104 139.953V177.697L685.14 155.631L685.14 118.817Z" fill="#867C7C"/>
<path d="M684.726 158.115L718.691 179.25V216.995L684.726 194.929L684.726 158.115Z" fill="#867C7C"/>
<path d="M684.313 197.12L718.277 218.256V256L684.312 233.934L684.313 197.12Z" fill="#867C7C"/>
<path d="M649.01 95.8398L682.975 116.975V154.72L649.01 132.654L649.01 95.8398Z" fill="#867C7C"/>
<path d="M648.596 135.137L682.561 156.273V194.017L648.596 171.951L648.596 135.137Z" fill="#867C7C"/>
<path d="M648.183 174.143L682.147 195.278V233.023L648.183 210.957L648.183 174.143Z" fill="#867C7C"/>
<path d="M612.881 72.8623L646.845 93.9979V131.742L612.881 109.676L612.881 72.8623Z" fill="#C41E1E"/>
<path d="M612.467 112.16L646.431 133.295V171.04L612.467 148.974L612.467 112.16Z" fill="#C41E1E"/>
<path d="M612.053 151.165L646.017 172.3V210.045L612.053 187.979L612.053 151.165Z" fill="#C41E1E"/>
<path d="M827.079 72.5234V109.49L792.644 131.265L792.644 94.5517L827.079 72.5234Z" fill="#867C7C"/>
<path d="M827.363 110.991V147.958L792.928 169.733L792.928 133.019L827.363 110.991Z" fill="#867C7C"/>
<path d="M827.363 149.427V186.394L792.928 208.169L792.928 171.455L827.363 149.427Z" fill="#867C7C"/>
<path d="M791.299 95.3613V132.328L756.864 154.103L756.864 117.39L791.299 95.3613Z" fill="#867C7C"/>
<path d="M791.582 133.829V170.796L757.147 192.571L757.147 155.857L791.582 133.829Z" fill="#867C7C"/>
<path d="M791.582 172.264V209.231L757.147 231.006L757.147 194.292L791.582 172.264Z" fill="#867C7C"/>
<path d="M755.81 118.591V155.558L721.375 177.333L721.375 140.62L755.81 118.591Z" fill="#867C7C"/>
<path d="M756.094 157.058V194.025L721.659 215.8L721.659 179.086L756.094 157.058Z" fill="#867C7C"/>
<path d="M756.094 195.494V232.461L721.659 254.236L721.659 217.522L756.094 195.494Z" fill="#867C7C"/>
<path d="M720.287 0L755.461 22.3706L720.287 45.0412L684.953 22.3706L720.287 0Z" fill="#C41E1E"/>
<path d="M756.53 23.4673L791.704 45.8379L756.53 68.5085L721.196 45.8379L756.53 23.4673Z" fill="#867C7C"/>
<path d="M792.773 46.9346L827.947 69.3052L792.773 91.9757L757.439 69.3052L792.773 46.9346Z" fill="#867C7C"/>
<path d="M647.8 46.8667L682.975 69.2373L647.8 91.9079L612.467 69.2373L647.8 46.8667Z" fill="#C41E1E"/>
<path d="M684.044 70.334L719.218 92.7046L684.044 115.375L648.71 92.7046L684.044 70.334Z" fill="#867C7C"/>
<path d="M720.287 93.8013L755.461 116.172L720.287 138.842L684.953 116.172L720.287 93.8013Z" fill="#867C7C"/>
<path d="M683.93 23.4673L719.105 45.8379L683.93 68.5085L648.597 45.8379L683.93 23.4673Z" fill="#C41E1E"/>
<path d="M720.173 46.9346L755.347 69.3052L720.173 91.9757L684.84 69.3052L720.173 46.9346Z" fill="#867C7C"/>
<path d="M756.416 70.4019L791.591 92.7725L756.416 115.443L721.083 92.7725L756.416 70.4019Z" fill="#867C7C"/>
</svg>
